<svg xmlns="http://www.w3.org/2000/svg" version="1.1" xmlns:xlink="http://www.w3.org/1999/xlink" xmlns:svgjs="http://svgjs.dev/svgjs" viewBox="0 0 2400 800" opacity="1"><g fill="#dcdae0ff" transform="matrix(1,0,0,1,5.82373046875,143.53277587890625)"><path d="M-10,10C75.41666666666666,22.708333333333332,231.25,78.91666666666667,400,71C568.75,63.083333333333336,633.3333333333333,-34.041666666666664,800,-28C966.6666666666667,-21.958333333333336,1033.3333333333333,96.25,1200,100C1366.6666666666667,103.75,1433.3333333333333,0,1600,-10C1766.6666666666667,-20,1833.3333333333333,68.04166666666667,2000,52C2166.6666666666665,35.95833333333333,2264.5833333333335,-159.5,2400,-87C2535.4166666666665,-14.5,3254.1666666666665,194.375,2650,400C2045.8333333333335,605.625,156.25,795.8333333333334,-500,900" transform="matrix(1,0,0,1,0,129)" opacity="0.05"></path><path d="M-10,10C75.41666666666666,22.708333333333332,231.25,78.91666666666667,400,71C568.75,63.083333333333336,633.3333333333333,-34.041666666666664,800,-28C966.6666666666667,-21.958333333333336,1033.3333333333333,96.25,1200,100C1366.6666666666667,103.75,1433.3333333333333,0,1600,-10C1766.6666666666667,-20,1833.3333333333333,68.04166666666667,2000,52C2166.6666666666665,35.95833333333333,2264.5833333333335,-159.5,2400,-87C2535.4166666666665,-14.5,3254.1666666666665,194.375,2650,400C2045.8333333333335,605.625,156.25,795.8333333333334,-500,900" transform="matrix(1,0,0,1,0,258)" opacity="0.53"></path><path d="M-10,10C75.41666666666666,22.708333333333332,231.25,78.91666666666667,400,71C568.75,63.083333333333336,633.3333333333333,-34.041666666666664,800,-28C966.6666666666667,-21.958333333333336,1033.3333333333333,96.25,1200,100C1366.6666666666667,103.75,1433.3333333333333,0,1600,-10C1766.6666666666667,-20,1833.3333333333333,68.04166666666667,2000,52C2166.6666666666665,35.95833333333333,2264.5833333333335,-159.5,2400,-87C2535.4166666666665,-14.5,3254.1666666666665,194.375,2650,400C2045.8333333333335,605.625,156.25,795.8333333333334,-500,900" transform="matrix(1,0,0,1,0,387)" opacity="1.00"></path></g></svg>